<svg width="14" height="8" viewBox="0 0 14 8" fill="none" xmlns="http://www.w3.org/2000/svg">
<path fill-rule="evenodd" clip-rule="evenodd" d="M1.14543 0.646039C1.23923 0.551998 1.3666 0.499146 1.49943 0.499146C1.63226 0.499146 1.75962 0.551998 1.85343 0.646039L7.49943 6.29304L13.1454 0.646039C13.2719 0.519567 13.4562 0.470174 13.629 0.516466C13.8018 0.562758 13.9367 0.697702 13.983 0.870466C14.0293 1.04323 13.9799 1.22757 13.8534 1.35404L7.85343 7.35404C7.75962 7.44808 7.63226 7.50093 7.49943 7.50093C7.3666 7.50093 7.23923 7.44808 7.14543 7.35404L1.14543 1.35404C1.05139 1.26024 0.998535 1.13287 0.998535 1.00004C0.998535 0.867212 1.05139 0.739844 1.14543 0.646039Z" fill="white"/>
</svg>
